<svg
  width="936"
  height="680"
  viewBox="0 0 936 680"
  fill="none"
  xmlns="http://www.w3.org/2000/svg"
>
<path
    opacity="0.3"
    d="M1220 37.3078L1242.19 48.8239L1220 37.3078ZM637 190.808L660.625 182.632L637 190.808ZM409 609.308L387.268 596.95L409 609.308ZM6.10754 254.95C-2.25537 243.964 -0.128662 228.278 10.8577 219.915C21.844 211.552 37.5295 213.679 45.8925 224.665L6.10754 254.95ZM1456.86 289.407C1421.12 237.077 1365.79 162.988 1315.82 110.161C1290.48 83.3645 1268.28 63.9632 1251.81 54.8452C1247.89 52.6733 1244.79 51.3687 1242.46 50.6591C1240.11 49.9413 1239.12 50.004 1239.18 49.9999C1241.27 49.8611 1242.66 47.9244 1242.19 48.8239L1197.81 25.7916C1205.54 10.8911 1218.87 1.23984 1235.86 0.110123C1250.41 -0.857256 1264.44 4.68594 1276.03 11.1016C1299.64 24.1732 1326.24 48.4094 1352.15 75.8042C1404.7 131.361 1461.72 207.872 1498.14 261.208L1456.86 289.407ZM1242.19 48.8239C1240.82 51.4649 1239.12 59.2746 1241.52 75.926C1243.79 91.6199 1249.09 111.295 1256.82 134.39C1272.34 180.707 1295.96 236.009 1319.24 293.629C1342.17 350.365 1364.69 409.202 1376.34 459.836C1382.17 485.166 1385.59 509.74 1384.5 531.743C1383.41 553.678 1377.67 575.518 1362.7 592.397L1325.3 559.218C1329.95 553.972 1333.78 544.859 1334.56 529.257C1335.33 513.723 1332.93 494.176 1327.61 471.045C1316.96 424.757 1295.9 369.313 1272.88 312.361C1250.23 256.294 1225.57 198.502 1209.41 150.272C1201.31 126.094 1194.93 103.132 1192.03 83.0704C1189.27 63.966 1188.93 42.9006 1197.81 25.7916L1242.19 48.8239ZM1362.7 592.397C1344.42 613.012 1319.49 614.755 1297.23 608.195C1276.17 601.984 1254.02 587.736 1232.36 570.278C1188.56 534.961 1138.45 479.544 1090.37 420.985C1042.02 362.103 994.648 298.707 956.332 246.574C917.354 193.539 888.976 153.911 877.087 140.157L914.913 107.459C928.524 123.205 959.084 165.889 996.621 216.963C1034.82 268.939 1081.54 331.45 1129.01 389.255C1176.74 447.384 1224.16 499.436 1263.75 531.353C1283.79 547.513 1299.8 556.823 1311.37 560.235C1321.76 563.298 1323.96 560.729 1325.3 559.218L1362.7 592.397ZM877.087 140.157C869.126 130.948 848.733 119.2 818.874 110.275C790.115 101.678 756.915 97.0107 727.472 98.6402C697.142 100.319 675.601 108.351 664.484 120.062C655.344 129.69 648.364 147.201 660.625 182.632L613.375 198.984C597.257 152.409 602.088 113.167 628.221 85.6379C652.376 60.1917 689.57 50.6615 724.709 48.7166C760.736 46.7227 799.741 52.3696 833.194 62.3689C865.547 72.0395 897.374 87.1679 914.913 107.459L877.087 140.157ZM660.625 182.632C677.248 230.666 708.917 276.24 746.168 319.991C784.104 364.548 823.952 403.062 859.781 442.333C877.129 461.347 893.15 480.196 905.789 498.636C918.324 516.922 928.532 536.219 932.785 556.133C937.205 576.832 935.082 597.896 923.505 617.734C912.35 636.851 893.684 652.657 869.053 666.211L844.947 622.405C865.066 611.334 875.353 601.046 880.321 592.534C884.867 584.743 886.037 576.643 883.887 566.576C881.57 555.725 875.344 542.654 864.548 526.905C853.858 511.31 839.653 494.456 822.844 476.033C790.361 440.429 746.177 397.13 708.098 352.405C669.333 306.876 633.002 255.699 613.375 198.984L660.625 182.632ZM869.053 666.211C839.331 682.566 808.274 682.422 778.663 671.323C750.043 660.594 722.649 639.69 696.891 614.108C645.356 562.925 594.023 486.465 546.361 410.18C497.902 332.62 453.422 255.6 413.686 198.456C393.85 169.93 376.361 148.119 361.408 134.454C353.952 127.64 348.09 123.757 343.81 121.853C341.764 120.942 340.401 120.63 339.642 120.531C339.272 120.483 339.043 120.485 338.929 120.491C338.819 120.497 338.769 120.509 338.75 120.514L326.25 72.1017C353.097 65.1694 377.478 81.4069 395.137 97.5442C414.338 115.091 434.392 140.654 454.736 169.91C495.359 228.328 541.786 308.495 588.764 383.686C636.539 460.151 685.176 532.003 732.125 578.632C755.609 601.956 777.086 617.334 796.214 624.504C814.351 631.303 829.919 630.674 844.947 622.405L869.053 666.211ZM338.75 120.514C335.84 121.265 333.196 122.58 330.989 130.126C328.357 139.127 327.795 153.568 330.437 174.121C335.667 214.819 351.852 268.74 370.875 326.628C389.532 383.397 410.866 443.82 424.548 494.192C431.409 519.455 436.691 543.375 438.714 563.986C440.624 583.436 440.234 604.955 430.732 621.665L387.268 596.95C388.641 594.535 390.688 586.539 388.954 568.872C387.333 552.365 382.887 531.566 376.296 507.298C363.071 458.608 342.593 400.718 323.375 342.238C304.523 284.875 286.771 226.609 280.844 180.494C277.908 157.641 277.464 135.02 282.999 116.091C288.961 95.7069 302.535 78.2252 326.25 72.1017L338.75 120.514ZM430.732 621.665C425.821 630.302 418.257 637.104 408.343 640.516C399.022 643.724 389.736 643.217 381.939 641.541C366.906 638.309 351.066 629.325 336.019 618.756C305.181 597.094 267.593 561.411 228.75 520.463C150.625 438.103 62.9634 329.641 6.10754 254.95L45.8925 224.665C102.203 298.641 188.642 405.529 265.025 486.053C303.437 526.546 338.204 559.188 364.759 577.841C378.408 587.429 387.524 591.599 392.448 592.658C394.628 593.127 394.071 592.55 392.072 593.238C389.479 594.13 387.829 595.963 387.268 596.95L430.732 621.665Z"
    fill="#F2D1E9"
  />
</svg>
