<svg
  width="518"
  height="518"
  viewBox="0 0 518 518"
  fill="none"
  xmlns="http://www.w3.org/2000/svg"
>
<circle cx="259" cy="259" r="259" fill="#EFC5E3" />
<mask
    id="mask0_1_58"
    style="mask-type:alpha"
    maskUnits="userSpaceOnUse"
    x="0"
    y="0"
    width="518"
    height="518"
  >
<circle cx="259" cy="259" r="259" fill="#EFC5E3" />
</mask>
<g mask="url(#mask0_1_58)">
<path
      opacity="0.3"
      d="M-705 181.308C-632.833 75.6411 -480.3 -119.892 -447.5 -56.6922C-406.5 22.3078 -650 393.308 -571.5 481.808C-493 570.308 -174.5 88.8077 -123.5 29.8077C-72.5 -29.1923 192.258 -67.2037 135.5 96.8077C63 306.308 -263.5 451.808 -84.5 550.308C94.5 648.808 333.5 -25.1923 440 2.30774C546.5 29.8077 320 438.808 363.5 515.308C398.3 576.508 633.333 294.474 746.5 145.808"
      stroke="white"
      stroke-width="50"
    />
</g>
</svg>
